<?xml version="1.0" encoding="UTF-8"?>
<svg id="Layer_2" data-name="Layer 2" xmlns="http://www.w3.org/2000/svg" viewBox="0 0 194.23 72.4">
  <defs>
    <style>
      .cls-1 {
        fill: #00c700;
        stroke-width: 0px;
      }
    </style>
  </defs>
  <g id="Layer_1-2" data-name="Layer 1">
    <g>
      <g>
        <path class="cls-1" d="M84.11,25.63v-6.75h-2.44v-1.96h7.12v1.96h-2.43v6.75h-2.25Z"/>
        <path class="cls-1" d="M89.85,25.63v-8.71h4.94c1.72,0,2.55,1.12,2.55,2.22s-.67,1.82-1.49,2c.93.14,1.66,1.03,1.66,2.13,0,1.27-.85,2.36-2.56,2.36h-5.09ZM95.05,19.53c0-.42-.31-.72-.77-.72h-2.18v1.45h2.18c.46,0,.77-.3.77-.73ZM95.22,22.95c0-.43-.31-.78-.86-.78h-2.26v1.57h2.26c.54,0,.86-.31.86-.78Z"/>
        <path class="cls-1" d="M98.74,25.63v-8.71h2.25v8.71h-2.25Z"/>
        <path class="cls-1" d="M102.55,25.63v-8.71h2.25v6.75h3.5v1.96h-5.75Z"/>
        <path class="cls-1" d="M109.46,25.63v-8.71h2.25v8.71h-2.25Z"/>
        <path class="cls-1" d="M112.64,24.4l1.19-1.68c.63.63,1.59,1.15,2.78,1.15.77,0,1.24-.3,1.24-.72,0-1.19-4.94-.24-4.94-3.59,0-1.46,1.24-2.77,3.47-2.77,1.4,0,2.61.42,3.54,1.21l-1.23,1.61c-.73-.6-1.68-.9-2.55-.9-.65,0-.94.26-.94.63,0,1.11,4.92.3,4.92,3.54,0,1.75-1.29,2.91-3.63,2.91-1.76,0-2.99-.55-3.87-1.38Z"/>
        <path class="cls-1" d="M121.19,25.63v-8.71h2.25v8.71h-2.25Z"/>
      </g>
      <g>
        <path class="cls-1" d="M81.54,40.08l1.19-1.68c.63.63,1.59,1.15,2.78,1.15.77,0,1.24-.3,1.24-.72,0-1.19-4.94-.24-4.94-3.59,0-1.46,1.24-2.77,3.47-2.77,1.4,0,2.61.42,3.54,1.21l-1.23,1.61c-.73-.6-1.68-.9-2.55-.9-.65,0-.94.26-.94.63,0,1.11,4.92.3,4.92,3.54,0,1.75-1.29,2.91-3.63,2.91-1.76,0-2.99-.55-3.87-1.38Z"/>
        <path class="cls-1" d="M89.63,36.95c0-2.69,2.04-4.51,4.71-4.51,2.1,0,3.23,1.19,3.8,2.34l-1.93.91c-.29-.69-1.03-1.27-1.87-1.27-1.42,0-2.43,1.1-2.43,2.52s1.01,2.52,2.43,2.52c.84,0,1.58-.57,1.87-1.27l1.93.91c-.56,1.12-1.7,2.34-3.8,2.34-2.68,0-4.71-1.83-4.71-4.51Z"/>
        <path class="cls-1" d="M104.98,41.3v-3.5h-3.62v3.5h-2.25v-8.71h2.25v3.25h3.62v-3.25h2.25v8.71h-2.25Z"/>
        <path class="cls-1" d="M108.35,36.95c0-2.65,2-4.51,4.66-4.51s4.65,1.85,4.65,4.51-1.99,4.51-4.65,4.51-4.66-1.86-4.66-4.51ZM115.37,36.95c0-1.42-.93-2.52-2.36-2.52s-2.38,1.1-2.38,2.52.93,2.52,2.38,2.52,2.36-1.11,2.36-2.52Z"/>
        <path class="cls-1" d="M118.35,36.95c0-2.65,2-4.51,4.66-4.51s4.65,1.85,4.65,4.51-1.99,4.51-4.65,4.51-4.66-1.86-4.66-4.51ZM125.38,36.95c0-1.42-.93-2.52-2.36-2.52s-2.38,1.1-2.38,2.52.93,2.52,2.38,2.52,2.36-1.11,2.36-2.52Z"/>
        <path class="cls-1" d="M128.8,41.3v-8.71h2.25v6.75h3.5v1.96h-5.75Z"/>
        <path class="cls-1" d="M138.61,36.95c0-2.65,2-4.51,4.66-4.51s4.65,1.85,4.65,4.51-1.99,4.51-4.65,4.51-4.66-1.86-4.66-4.51ZM145.63,36.95c0-1.42-.93-2.52-2.36-2.52s-2.38,1.1-2.38,2.52.93,2.52,2.38,2.52,2.36-1.11,2.36-2.52Z"/>
        <path class="cls-1" d="M149.05,41.3v-8.71h6.39v1.96h-4.14v1.36h4.05v1.96h-4.05v3.44h-2.25Z"/>
      </g>
      <g>
        <path class="cls-1" d="M81.72,52.63c0-2.69,2.04-4.51,4.71-4.51,2.1,0,3.23,1.19,3.8,2.34l-1.93.91c-.29-.69-1.03-1.27-1.87-1.27-1.42,0-2.43,1.1-2.43,2.52s1.01,2.52,2.43,2.52c.84,0,1.58-.57,1.87-1.27l1.93.91c-.56,1.12-1.7,2.34-3.8,2.34-2.68,0-4.71-1.83-4.71-4.51Z"/>
        <path class="cls-1" d="M90.76,52.63c0-2.65,2-4.51,4.66-4.51s4.65,1.85,4.65,4.51-1.99,4.51-4.65,4.51-4.66-1.86-4.66-4.51ZM97.78,52.63c0-1.42-.93-2.52-2.36-2.52s-2.38,1.1-2.38,2.52.93,2.52,2.38,2.52,2.36-1.11,2.36-2.52Z"/>
        <path class="cls-1" d="M108.84,56.97v-5.67l-2.21,5.67h-.99l-2.19-5.67v5.67h-2.25v-8.71h3.12l1.82,4.73,1.83-4.73h3.12v8.71h-2.25Z"/>
        <path class="cls-1" d="M120.3,56.97v-5.67l-2.21,5.67h-.99l-2.19-5.67v5.67h-2.25v-8.71h3.12l1.82,4.73,1.83-4.73h3.12v8.71h-2.25Z"/>
        <path class="cls-1" d="M124.11,53.45v-5.19h2.29v5.11c0,1.03.61,1.78,1.84,1.78s1.83-.74,1.83-1.78v-5.11h2.27v5.17c0,2.17-1.32,3.7-4.1,3.7s-4.13-1.54-4.13-3.68Z"/>
        <path class="cls-1" d="M139.84,56.97l-3.68-5.04v5.04h-2.25v-8.71h2.31l3.53,4.79v-4.79h2.26v8.71h-2.17Z"/>
        <path class="cls-1" d="M143.57,56.97v-8.71h2.25v8.71h-2.25Z"/>
        <path class="cls-1" d="M146.94,52.63c0-2.69,2.04-4.51,4.71-4.51,2.1,0,3.23,1.19,3.8,2.34l-1.93.91c-.29-.69-1.03-1.27-1.87-1.27-1.42,0-2.43,1.1-2.43,2.52s1.01,2.52,2.43,2.52c.84,0,1.58-.57,1.87-1.27l1.93.91c-.56,1.12-1.7,2.34-3.8,2.34-2.68,0-4.71-1.83-4.71-4.51Z"/>
        <path class="cls-1" d="M162.23,56.97l-.43-1.25h-3.44l-.43,1.25h-2.55l3.28-8.71h2.82l3.29,8.71h-2.55ZM160.08,50.48l-1.11,3.28h2.22l-1.11-3.28Z"/>
        <path class="cls-1" d="M166.57,56.97v-6.75h-2.44v-1.96h7.12v1.96h-2.43v6.75h-2.25Z"/>
        <path class="cls-1" d="M172.31,56.97v-8.71h2.25v8.71h-2.25Z"/>
        <path class="cls-1" d="M175.68,52.63c0-2.65,2-4.51,4.66-4.51s4.65,1.85,4.65,4.51-1.99,4.51-4.65,4.51-4.66-1.86-4.66-4.51ZM182.71,52.63c0-1.42-.93-2.52-2.36-2.52s-2.38,1.1-2.38,2.52.93,2.52,2.38,2.52,2.36-1.11,2.36-2.52Z"/>
        <path class="cls-1" d="M192.06,56.97l-3.68-5.04v5.04h-2.25v-8.71h2.31l3.53,4.79v-4.79h2.26v8.71h-2.17Z"/>
      </g>
      <g>
        <circle class="cls-1" cx="51.47" cy="24.73" r="4.03"/>
        <path class="cls-1" d="M0,0v72.4h73.02V0H0ZM51.47,14.98c5.38,0,9.75,4.37,9.75,9.75s-4.37,9.75-9.75,9.75-9.75-4.37-9.75-9.75,4.37-9.75,9.75-9.75ZM21.35,15.1c3.55,0,6.8,1.95,8.48,5.08l.14.26-5.04,2.71-.14-.26c-.68-1.27-2-2.06-3.44-2.06-2.16,0-3.91,1.75-3.91,3.91s1.75,3.91,3.91,3.91c1.44,0,2.76-.79,3.44-2.06l.14-.26,5.04,2.71-.14.26c-1.68,3.13-4.93,5.08-8.48,5.08-5.31,0-9.63-4.32-9.63-9.63s4.32-9.63,9.63-9.63ZM20.96,52.08l-.02-.02.02-.02.02.02-.02.02ZM33.73,56.46h-5.5v-11.11l-2.8,2.8-3.89,3.89-3.88-3.88h0s-2.79-2.8-2.79-2.8v5.59h0v5.51h-5.5l-.02.02h0v-20.02h4.44l1.08,1.08,6.69,6.69,6.68-6.68,1.1-1.1h4.4v19.98h.01s-.01.01-.01.01ZM50.86,52.06h0s0-.01,0-.01h0s0,.01,0,.01ZM63.69,39.8v16.7h0s-.05-.04-.05-.04h-5.51v-5.51h0v-5.59l-2.79,2.79h0s-3.9,3.9-3.9,3.9l-3.89-3.89-2.79-2.79v11.09h-5.51s0,0,0,0v-19.99h4.42l1.09,1.09,6.69,6.69,6.68-6.68,1.1-1.1h4.46v3.33Z"/>
      </g>
    </g>
  </g>
</svg>