<svg width="166" height="40" viewBox="0 0 166 40" fill="none" xmlns="http://www.w3.org/2000/svg">
<g clip-path="url(#clip0_4608_9181)">
<path d="M90.8034 37.076C89.3512 36.4657 88.0327 35.5973 86.9175 34.5167C85.7726 33.4048 84.8672 32.0878 84.253 30.6407C83.5949 29.0937 83.2646 27.4366 83.2813 25.766C83.2547 24.0423 83.6025 22.3321 84.3028 20.7443C84.943 19.3062 85.8643 17.9988 87.0171 16.8925C88.1374 15.8256 89.4662 14.9809 90.9274 14.4067C92.3713 13.8284 93.9206 13.5303 95.4855 13.5299C96.2182 13.5322 96.95 13.5807 97.6761 13.6752C98.465 13.7788 99.241 13.9584 99.9923 14.2113C100.813 14.4912 101.599 14.8592 102.334 15.3085C103.167 15.824 103.914 16.4567 104.55 17.1855L102.654 19.0384C102.218 18.4493 101.679 17.9369 101.061 17.524C100.374 17.0744 99.6288 16.7137 98.8437 16.4511C97.7617 16.101 96.6239 15.9362 95.4824 15.9642C94.2117 15.9664 92.9556 16.2244 91.7956 16.7214C90.6045 17.2227 89.5167 17.9243 88.5836 18.793C87.6267 19.6847 86.8571 20.744 86.3164 21.9134C85.771 23.0853 85.4829 24.3523 85.4701 25.6355C85.4574 26.9187 85.7201 28.1907 86.2421 29.3724C87.2621 31.7183 89.1516 33.6195 91.5467 34.7098C92.7735 35.2784 94.1197 35.5703 95.4824 35.5631V37.9998C93.8724 38.0099 92.2782 37.6952 90.8034 37.076ZM128.459 37.9505V25.5706C128.466 24.2649 128.17 22.9741 127.591 21.7923C127.027 20.6301 126.251 19.5736 125.3 18.6727C124.361 17.7854 123.264 17.0672 122.061 16.5525C120.895 16.0427 119.629 15.7769 118.348 15.7726H108.337V1H110.877V13.2368H118.349C120.135 13.2151 121.904 13.573 123.528 14.2848C126.555 15.6155 128.915 18.0311 130.103 21.0124C130.696 22.4649 131 24.0109 131 25.5706V37.9505H128.459ZM19.9743 37.9051V3.63273H0V1.19535H22.4643V37.9051H19.9743ZM61.9775 36.8322C60.4734 36.191 59.1162 35.2717 57.9835 34.1268C56.89 33.0125 56.034 31.7044 55.4635 30.2757C54.8894 28.8697 54.5934 27.3735 54.5906 25.8636V13.6268H57.2306V25.8356C57.2225 27.0927 57.4671 28.3396 57.9511 29.5079C58.4108 30.6291 59.0942 31.6535 59.9631 32.5238C60.8575 33.4054 61.9314 34.1013 63.1183 34.5682C64.4337 35.0856 65.8446 35.3432 67.2664 35.3254C68.5424 35.3284 69.8045 35.0703 70.9681 34.5682C72.1158 34.0839 73.1538 33.3895 74.0237 32.5238C74.8967 31.6448 75.5954 30.6208 76.0855 29.5019C76.6014 28.3382 76.8635 27.0856 76.8558 25.8212H79.4958C79.5017 27.3836 79.188 28.932 78.5723 30.3787C77.9743 31.7996 77.1026 33.0999 76.0026 34.2116C74.8946 35.3279 73.5733 36.2299 72.1104 36.8685C70.5921 37.5353 68.9396 37.8747 67.2695 37.8627C65.4489 37.8891 63.643 37.5376 61.9775 36.8322ZM38.5029 35.3701C39.7822 35.3736 41.0502 35.1423 42.2387 34.6886C43.4155 34.2443 44.4894 33.5817 45.3985 32.7388C46.3293 31.8698 47.074 30.8347 47.5907 29.6919C48.6546 27.345 48.7303 24.6947 47.8019 22.2955C46.8736 19.8963 45.0132 17.9342 42.61 16.8198C41.3273 16.2368 39.9216 15.945 38.5021 15.9672C37.2472 15.9656 36.0038 16.197 34.8406 16.6487C33.6681 17.1011 32.5958 17.7627 31.6808 18.5985C30.7349 19.4653 29.9737 20.5002 29.4396 21.6454C28.8574 22.9117 28.5685 24.2839 28.5928 25.6675H26.0997C26.0941 24.0688 26.4245 22.4853 27.0713 21.0116C27.691 19.5732 28.5862 18.2588 29.7106 17.1363C30.8334 16.0244 32.1694 15.1305 33.6454 14.5036C35.1733 13.8506 36.8293 13.5183 38.5021 13.5291C40.1911 13.5151 41.8637 13.8474 43.4078 14.5036C46.3956 15.7698 48.747 18.1074 49.9582 21.0154C50.5891 22.4929 50.9112 24.0748 50.9062 25.6713C50.8991 27.143 50.6295 28.6027 50.1091 29.9872C49.5863 31.4194 48.7833 32.7429 47.7432 33.8867C46.6586 35.0689 45.3375 36.0303 43.8581 36.7141C42.1854 37.471 40.3522 37.845 38.5029 37.8067V35.3701Z" fill="white" stroke="white"/>
</g>
<mask id="mask0_4608_9181" style="mask-type:luminance" maskUnits="userSpaceOnUse" x="143" y="17" width="23" height="23">
<path d="M154.025 39.32C160.115 39.32 165.051 34.3235 165.051 28.16C165.051 21.9965 160.115 17 154.025 17C147.936 17 143 21.9965 143 28.16C143 34.3235 147.936 39.32 154.025 39.32Z" fill="white"/>
</mask>
<g mask="url(#mask0_4608_9181)">
<g style="mix-blend-mode:difference">
<path d="M149.46 40.6778C154.713 40.6778 158.972 36.3675 158.972 31.0505C158.972 25.7335 154.713 21.4232 149.46 21.4232C144.208 21.4232 139.949 25.7335 139.949 31.0505C139.949 36.3675 144.208 40.6778 149.46 40.6778Z" fill="#0000FF"/>
</g>
<g style="mix-blend-mode:difference">
<path d="M158.976 40.7419C164.229 40.7419 168.487 36.4316 168.487 31.1146C168.487 25.7976 164.229 21.4873 158.976 21.4873C153.723 21.4873 149.465 25.7976 149.465 31.1146C149.465 36.4316 153.723 40.7419 158.976 40.7419Z" fill="#00FF00"/>
</g>
<g style="mix-blend-mode:difference">
<path d="M154.269 32.3705C159.522 32.3705 163.78 28.0602 163.78 22.7432C163.78 17.4261 159.522 13.1158 154.269 13.1158C149.016 13.1158 144.758 17.4261 144.758 22.7432C144.758 28.0602 149.016 32.3705 154.269 32.3705Z" fill="#FF0000"/>
</g>
</g>
<defs>
<clipPath id="clip0_4608_9181">
<rect width="131" height="38" fill="white" transform="translate(0 1)"/>
</clipPath>
</defs>
</svg>
